<svg width="113" height="40" viewBox="0 0 113 40" fill="none" xmlns="http://www.w3.org/2000/svg">
<path d="M39.3164 32.6048V26.0279H50.8079V10.5425L57.5499 6.73364V26.8449C59.9996 26.8449 62.2095 26.9606 64.4044 26.8001C65.6254 26.7106 66.0899 25.6138 66.1311 24.4723C66.191 22.7786 66.1648 21.0812 66.1985 19.3876C66.1985 18.7012 66.2847 18.0148 66.3371 17.209H71.4873C71.5735 18.4773 71.6559 19.6748 71.7682 21.3126C72.5623 20.5664 73.1241 20.018 73.6747 19.4808C76.0082 17.209 78.7088 15.6571 81.9899 15.2169C86.5671 14.5976 90.6048 16.9142 92.2304 21.2081C93.5002 24.5656 94.1032 28.7848 93.4889 32.5004C75.5625 32.5079 57.3814 32.6048 39.3164 32.6048ZM73.847 26.8113H86.7206C87.657 22.6369 84.6194 19.701 80.6378 20.8201C77.5552 21.6893 75.6749 23.9575 73.847 26.8113Z" fill="#824D98"/>
<path d="M99.2723 39.9016V34.7982C100.973 34.7982 102.538 34.8393 104.1 34.7982C105.853 34.7385 106.348 34.2461 106.411 32.5599C105.853 32.5226 105.288 32.4741 104.722 32.4517C103.782 32.4182 102.849 32.4517 101.905 32.3734C98.2572 32.0003 96.2871 30.2992 95.8601 26.6843C95.6468 24.8922 95.7584 23.0764 96.1897 21.3236C96.9575 18.2944 99.2273 16.6903 102.287 16.2724C103.453 16.1381 104.628 16.1193 105.797 16.2165C110.086 16.4925 112.749 19.1226 112.914 23.4239C113.041 26.9231 113.015 30.4372 112.914 33.9402C112.828 37.2977 111.112 39.4353 107.794 39.8344C105.041 40.1627 102.216 39.9016 99.2723 39.9016ZM106.542 27.0014C106.601 25.7123 106.59 24.4209 106.509 23.1329C106.498 22.9101 106.443 22.6916 106.346 22.4906C106.249 22.2896 106.113 22.11 105.944 21.9627C105.776 21.8155 105.58 21.7034 105.368 21.6334C105.155 21.5633 104.93 21.5366 104.707 21.5549C103.917 21.6295 102.906 21.9279 102.46 22.4838C101.617 23.5358 101.688 24.9161 102.269 26.1285C102.778 27.1954 103.864 27.1805 104.891 27.1581C105.381 27.1469 105.891 27.0649 106.542 27.0014Z" fill="#824D98"/>
<path d="M21.7836 32.392C20.5965 32.4926 19.4113 32.1787 18.4313 31.5041C16.9517 30.385 15.7457 30.758 14.2774 31.5302C10.7228 33.3619 6.99597 32.3137 5.03328 28.889C1.92069 23.4686 0.733338 17.4699 0.025421 11.3556C-0.20306 9.40077 1.1491 9.36346 2.45631 9.20305C3.98451 9.01652 4.6325 9.63579 4.74112 11.2138C5.02953 15.5226 5.63257 19.794 7.36304 23.8081C7.9646 25.2904 8.95246 26.5859 10.2247 27.561C10.9925 28.1355 11.8727 28.3817 12.738 27.6729C13.6032 26.9641 13.4646 26.0986 13.0001 25.2219C11.4307 22.2711 9.92502 19.3128 10.0636 15.8136C10.2172 12.0308 12.8428 9.25155 16.4311 9.19186C19.6411 9.14336 22.7087 12.1763 22.7462 15.7203C22.7761 18.8465 21.6637 21.7227 20.2067 24.4684C19.6336 25.5465 18.4687 26.7552 20.1467 27.7923C21.6824 28.7361 22.7125 27.6169 23.6227 26.5649C26.1135 23.6812 26.8476 20.1111 27.4394 16.5186C27.7316 14.7317 27.8439 12.9149 28.0012 11.1131C28.166 9.21424 29.3834 9.07248 30.9153 9.21797C32.4473 9.36346 33.069 10.1842 32.8181 11.654C31.9453 16.8021 31.1026 21.954 28.8777 26.7552C27.0836 30.6312 24.9111 32.4032 21.7798 32.4032M16.3 22.5509C17.6372 20.2902 18.3938 18.3316 18.3901 16.1008C18.3901 14.7168 17.9293 13.6946 16.3787 13.661C14.828 13.6275 14.3673 14.8138 14.2999 16.0821C14.1763 18.2645 15.1801 20.1335 16.3 22.5509Z" fill="#57B7C2"/>
<path d="M16.5395 0.00359491C18.6933 0.0782054 20.2851 1.74202 20.1428 3.79381C20.049 4.73419 19.6136 5.60806 18.9183 6.25109C18.223 6.89412 17.3158 7.26202 16.3672 7.28559C15.8763 7.28152 15.3912 7.1791 14.9409 6.98444C14.4905 6.78978 14.0841 6.50686 13.7458 6.15252C13.4075 5.79818 13.1442 5.37966 12.9717 4.92188C12.7992 4.46411 12.7209 3.97644 12.7415 3.48791C12.7715 1.24959 14.2398 -0.0784767 16.5395 0.00359491Z" fill="#57B7C2"/>
<path d="M45.3249 26.028H43.0776C43.1822 26.2054 43.2366 26.4078 43.2349 26.6136C43.2349 26.9243 43.111 27.2223 42.8904 27.442C42.6698 27.6616 42.3707 27.785 42.0588 27.785C41.7469 27.785 41.4477 27.6616 41.2271 27.442C41.0066 27.2223 40.8827 26.9243 40.8827 26.6136C40.881 26.4078 40.9353 26.2054 41.04 26.028H38.7926V28.7214L38.6128 28.5684C38.4737 28.4492 38.3032 28.3721 38.1214 28.3466C37.9397 28.321 37.7543 28.3479 37.5875 28.4241C37.4206 28.5003 37.2793 28.6226 37.1801 28.7765C37.081 28.9304 37.0283 29.1093 37.0283 29.2922C37.0283 29.475 37.081 29.654 37.1801 29.8079C37.2793 29.9617 37.4206 30.0841 37.5875 30.1603C37.7543 30.2365 37.9397 30.2634 38.1214 30.2378C38.3032 30.2122 38.4737 30.1352 38.6128 30.0159L38.7926 29.8629V32.6161H41.0624C40.9572 32.4209 40.9007 32.2034 40.8976 31.9819C40.8976 31.6712 41.0215 31.3733 41.2421 31.1536C41.4627 30.9339 41.7618 30.8105 42.0738 30.8105C42.3857 30.8105 42.6848 30.9339 42.9054 31.1536C43.126 31.3733 43.2499 31.6712 43.2499 31.9819C43.2516 32.1877 43.1972 32.3901 43.0926 32.5676H45.3399L45.3249 26.028Z" fill="#824D98"/>
<path d="M34.0428 27.6881C34.3491 27.691 34.6441 27.573 34.8632 27.3597C35.0823 27.1464 35.2075 26.8553 35.2114 26.5503C35.2114 26.3494 35.157 26.1522 35.0541 25.9795H33.0352C32.9323 26.1522 32.878 26.3494 32.8779 26.5503C32.8819 26.8547 33.0066 27.1452 33.2248 27.3584C33.4431 27.5715 33.7371 27.6901 34.0428 27.6881Z" fill="#824D98"/>
<path d="M37.4512 28.318V25.9678H37.4062V28.2844L37.4512 28.318Z" fill="#824D98"/>
<path d="M35.6275 29.3029C35.6289 29.1485 35.6609 28.996 35.7216 28.854C35.7822 28.712 35.8704 28.5833 35.981 28.4752C36.0916 28.3671 36.2225 28.2818 36.3662 28.2241C36.5099 28.1664 36.6636 28.1375 36.8186 28.1389C37.0248 28.1401 37.2273 28.194 37.4066 28.2956V25.9678H35.1031C35.2109 26.1483 35.2679 26.3545 35.2679 26.5646C35.2506 26.876 35.1142 27.169 34.8867 27.3833C34.6593 27.5977 34.3581 27.7171 34.045 27.7171C33.7318 27.7171 33.4306 27.5977 33.2032 27.3833C32.9757 27.169 32.8393 26.876 32.822 26.5646C32.822 26.3545 32.879 26.1483 32.9868 25.9678H31.2227V26.3408C31.3575 29.176 33.9944 31.6643 37.1931 32.5932H37.4066V30.3026C37.2264 30.4014 37.0243 30.454 36.8186 30.4556C36.5076 30.4586 36.2079 30.3392 35.9849 30.1233C35.7618 29.9074 35.6334 29.6126 35.6275 29.3029Z" fill="#824D98"/>
</svg>
